<?xml version="1.0" encoding="UTF-8"?>
<svg version="1.1" xmlns="http://www.w3.org/2000/svg" width="160" height="180">
<path d="M0 0 C52.8 0 105.6 0 160 0 C160 59.4 160 118.8 160 180 C107.2 180 54.4 180 0 180 C0 120.6 0 61.2 0 0 Z " fill="#EA7101" transform="translate(0,0)"/>
<path d="M0 0 C1.6540686 0.0146228 1.6540686 0.0146228 3.34155273 0.02954102 C18.37079613 0.35725384 29.01654892 5.86271809 41.625 13.4375 C40.98071752 16.55718359 39.90257123 18.99623453 38.33984375 21.765625 C37.89189453 22.56484375 37.44394531 23.3640625 36.98242188 24.1875 C36.51384766 25.0125 36.04527344 25.8375 35.5625 26.6875 C35.09005859 27.52796875 34.61761719 28.3684375 34.13085938 29.234375 C32.96642039 31.30448876 31.7976855 33.37205014 30.625 35.4375 C27.22329583 34.13240568 24.03026806 32.64255319 20.8125 30.9375 C10.08707788 25.57478894 -0.29872821 24.97756773 -11.81640625 28.5390625 C-22.56880922 32.31471545 -30.06007821 39.03168111 -35.40234375 49.19921875 C-39.99359774 59.76463455 -40.22512697 72.610752 -36.375 83.5 C-31.75632249 93.66885301 -25.46326176 100.623731 -15.375 105.4375 C-14.34826172 105.94603516 -14.34826172 105.94603516 -13.30078125 106.46484375 C-4.11428053 110.26193072 8.25699073 109.65707285 17.515625 106.44140625 C19.71745472 105.3934984 21.50536907 104.16962608 23.4375 102.6875 C26.625 100.4375 26.625 100.4375 28.9921875 100.2734375 C33.25372268 102.15761774 34.74884104 105.84373175 36.9375 109.8125 C37.39189453 110.59367187 37.84628906 111.37484375 38.31445312 112.1796875 C41.625 117.99430216 41.625 117.99430216 41.625 121.4375 C37.0141848 125.89836999 30.8062969 128.3818129 24.9375 130.75 C24.30835693 131.00434814 23.67921387 131.25869629 23.03100586 131.52075195 C8.45778391 137.15711191 -12.06920586 136.70732336 -26.375 130.4375 C-45.81831409 121.09543043 -58.18780578 106.65561068 -65.375 86.4375 C-67.33526167 80.42873855 -67.76101173 74.67255082 -67.75 68.375 C-67.74911377 67.45831543 -67.74822754 66.54163086 -67.74731445 65.59716797 C-67.56020817 54.71840959 -64.75635468 45.35517964 -60.375 35.4375 C-59.715 35.4375 -59.055 35.4375 -58.375 35.4375 C-58.27832031 34.88320313 -58.18164062 34.32890625 -58.08203125 33.7578125 C-54.54127704 22.1378788 -42.35236585 12.89073322 -32.07861328 7.40136719 C-21.57714576 2.04175728 -11.74213846 -0.11631236 0 0 Z " fill="#FCFBF8" transform="translate(86.375,22.5625)"/>
<path d="M0 0 C-3.65524228 1.21841409 -3.76215663 0.61892168 -7 -1 C-9.66709069 -1.16750414 -9.66709069 -1.16750414 -12 -1 C-12.33 -0.34 -12.66 0.32 -13 1 C-13.99 1 -14.98 1 -16 1 C-16 0.01 -16 -0.98 -16 -2 C-21.3039705 -3.55461204 -24.53675377 -4.09264925 -30 -3 C-33.33504331 -2.90456954 -36.66442416 -2.94067158 -40 -3 C-30.42181863 -12.57818137 -9.59904671 -6.18093598 0 0 Z " fill="#DA7A23" transform="translate(112,55)"/>
<path d="M0 0 C1.38342597 2.76685194 0.94635379 5.24684113 0.83203125 8.27172852 C0.35985795 22.89645342 3.95574319 33.11521961 14 44 C14.99107196 45.00884903 15.98750148 46.01265672 17 47 C14.25851328 46.62952882 12.41406801 46.31412056 10.1875 44.625 C9 43 9 43 9 40 C6.69 39.67 4.38 39.34 2 39 C2.33 36.69 2.66 34.38 3 32 C2.34 32 1.68 32 1 32 C0.81824219 30.60974609 0.81824219 30.60974609 0.6328125 29.19140625 C0.46523438 27.99386719 0.29765625 26.79632813 0.125 25.5625 C-0.03742187 24.36753906 -0.19984375 23.17257813 -0.3671875 21.94140625 C-0.57601562 20.97074219 -0.78484375 20.00007813 -1 19 C-1.66 18.67 -2.32 18.34 -3 18 C-2.69272975 15.18683642 -2.37944848 12.37457481 -2.0625 9.5625 C-1.97548828 8.76005859 -1.88847656 7.95761719 -1.79882812 7.13085938 C-1.11328125 1.11328125 -1.11328125 1.11328125 0 0 Z " fill="#FCE6C6" transform="translate(47,78)"/>
<path d="M0 0 C0.33 0 0.66 0 1 0 C1.33 2.64 1.66 5.28 2 8 C1.34 8 0.68 8 0 8 C-2.9407652 13.8815304 -1.69708304 22.1860112 0.19921875 28.30859375 C0.69850757 29.73286889 1.21529443 31.15113933 1.75 32.5625 C2.00209229 33.22846191 2.25418457 33.89442383 2.51391602 34.58056641 C4.15603842 38.61444239 6.23055651 41.67064728 9 45 C9 45.66 9 46.32 9 47 C9.99 47 10.98 47 12 47 C12.33 48.32 12.66 49.64 13 51 C5.88966096 48.19078123 1.44392147 39.71844935 -1.5 33 C-3.18597473 27.80719782 -3.37905302 22.72719544 -3.4375 17.3125 C-3.4478125 16.51650391 -3.458125 15.72050781 -3.46875 14.90039062 C-3.38539986 9.32982282 -2.20379349 5.11490532 0 0 Z " fill="#D47520" transform="translate(50,72)"/>
<path d="M0 0 C3.29240875 2.79854744 5.03562946 6.20673275 7 10 C7 10.99 7 11.98 7 13 C3.04 14.98 3.04 14.98 -1 17 C-1 16.34 -1 15.68 -1 15 C-2.65 15 -4.3 15 -6 15 C-4.68 12.69 -3.36 10.38 -2 8 C-1.01 8 -0.02 8 1 8 C0.67 5.36 0.34 2.72 0 0 Z " fill="#FDF9EF" transform="translate(121,131)"/>
<path d="M0 0 C2.475 0.495 2.475 0.495 5 1 C3.38789004 4.22421992 0.02003129 4.81293094 -3.1875 6.0625 C-3.84814453 6.33126953 -4.50878906 6.60003906 -5.18945312 6.87695312 C-11.0529253 9.19803145 -16.50294012 10.13170462 -22.8359375 10.09765625 C-23.89941406 10.09443359 -24.96289062 10.09121094 -26.05859375 10.08789062 C-27.15300781 10.07951172 -28.24742188 10.07113281 -29.375 10.0625 C-30.49261719 10.05798828 -31.61023438 10.05347656 -32.76171875 10.04882812 C-35.50786804 10.03709244 -38.25390586 10.02067363 -41 10 C-41 9.67 -41 9.34 -41 9 C-31.96278689 8.05757182 -23.07448253 7.88842849 -14 8 C-14 7.34 -14 6.68 -14 6 C-13.04287109 5.83564453 -13.04287109 5.83564453 -12.06640625 5.66796875 C-11.24011719 5.50941406 -10.41382812 5.35085937 -9.5625 5.1875 C-8.73878906 5.03667969 -7.91507813 4.88585937 -7.06640625 4.73046875 C-6.38449219 4.48941406 -5.70257813 4.24835938 -5 4 C-4.67 3.01 -4.34 2.02 -4 1 C-3.505 1.99 -3.505 1.99 -3 3 C-2.01 3 -1.02 3 0 3 C0 2.01 0 1.02 0 0 Z " fill="#FDF2DB" transform="translate(115,147)"/>
<path d="M0 0 C5.90198466 2.00245908 10.83281436 4.52314371 16 8 C15.34215037 11.29680965 14.10579427 13.84117922 12.4375 16.75 C11.98246094 17.54921875 11.52742188 18.3484375 11.05859375 19.171875 C10.70925781 19.77515625 10.35992187 20.3784375 10 21 C9.67 21 9.34 21 9 21 C9 19.35 9 17.7 9 16 C9.66 16 10.32 16 11 16 C11.66 13.69 12.32 11.38 13 9 C10.525 8.01 10.525 8.01 8 7 C8 6.34 8 5.68 8 5 C6.35 5 4.7 5 3 5 C2.67 5.66 2.34 6.32 2 7 C2 5.68 2 4.36 2 3 C1.34 3 0.68 3 0 3 C0 2.01 0 1.02 0 0 Z " fill="#FEEAC6" transform="translate(112,28)"/>
<path d="M0 0 C0 0.99 0 1.98 0 3 C0.5775 2.814375 1.155 2.62875 1.75 2.4375 C4.20692525 1.95976454 5.64397534 2.24270636 8 3 C6.33779419 4.00739746 4.66979326 5.00522955 3 6 C2.41089844 6.37125 1.82179688 6.7425 1.21484375 7.125 C-0.47861091 8.1604882 -2.23785209 9.08629368 -4 10 C-4.99 9.67 -5.98 9.34 -7 9 C-6.01 7.68 -5.02 6.36 -4 5 C-5.98 5 -7.96 5 -10 5 C-6.7321794 2.82145293 -3.61941735 1.50239966 0 0 Z " fill="#E6730A" transform="translate(119,149)"/>
<path d="M0 0 C-0.33 1.65 -0.66 3.3 -1 5 C-9.65203245 8.49409003 -17.84755529 8.30659554 -27 8 C-27 7.67 -27 7.34 -27 7 C-25.98292969 6.94392578 -25.98292969 6.94392578 -24.9453125 6.88671875 C-16.59586292 6.29693769 -6.99350742 0 0 0 Z " fill="#FCE7C9" transform="translate(112,125)"/>
<path d="M0 0 C1 2 1 2 0.125 5.125 C-1.73557877 11.88845527 -1.67855427 19.02970302 -2 26 C-2.66 26 -3.32 26 -4 26 C-4.10901505 23.16560863 -4.18777904 20.33549797 -4.25 17.5 C-4.28351562 16.70851563 -4.31703125 15.91703125 -4.3515625 15.1015625 C-4.45153439 9.00327706 -3.06910431 5.2682263 0 0 Z " fill="#D87924" transform="translate(21,70)"/>
<path d="M0 0 C8.89543642 -0.19865739 17.32910197 -0.33447255 26 2 C26 2.66 26 3.32 26 4 C25.04996094 3.84660156 24.09992188 3.69320313 23.12109375 3.53515625 C18.45038433 2.86791205 13.77201861 2.65596436 9.0625 2.4375 C7.75055664 2.37272461 7.75055664 2.37272461 6.41210938 2.30664062 C4.27488005 2.20153099 2.13745762 2.10036015 0 2 C0 1.34 0 0.68 0 0 Z " fill="#DA7D31" transform="translate(80,21)"/>
<path d="M0 0 C-8.04048296 6.00123003 -15.82229391 9.66376344 -26 9 C-26 8.67 -26 8.34 -26 8 C-24.35 8 -22.7 8 -21 8 C-20.67 7.01 -20.34 6.02 -20 5 C-19.22914062 4.97421875 -18.45828125 4.9484375 -17.6640625 4.921875 C-16.66117188 4.86515625 -15.65828125 4.8084375 -14.625 4.75 C-13.62726563 4.70359375 -12.62953125 4.6571875 -11.6015625 4.609375 C-10.74304688 4.40828125 -9.88453125 4.2071875 -9 4 C-7.72189836 2.06419359 -7.72189836 2.06419359 -7 0 C-4.04680182 -1.23843794 -3.12561472 -1.04187157 0 0 Z " fill="#D47622" transform="translate(115,123)"/>
<path d="M0 0 C3.29967665 2.80472516 5.08459104 6.16918209 7 10 C6.67 10.99 6.34 11.98 6 13 C4.35 12.67 2.7 12.34 1 12 C-0.3271261 8.0186217 -0.06915913 4.14954773 0 0 Z " fill="#F9EAD4" transform="translate(121,131)"/>
<path d="M0 0 C6.65545792 -0.54330269 10.45834744 0.22695996 16 4 C12.34475772 5.21841409 12.23784337 4.61892168 9 3 C6.33290931 2.83249586 6.33290931 2.83249586 4 3 C3.67 3.66 3.34 4.32 3 5 C2.01 5 1.02 5 0 5 C0 3.35 0 1.7 0 0 Z " fill="#E07718" transform="translate(96,51)"/>
<path d="M0 0 C0.66 0 1.32 0 2 0 C2 0.99 2 1.98 2 3 C2.66 3 3.32 3 4 3 C6 7 8 11 10 15 C10.99 15 11.98 15 13 15 C13.33 16.32 13.66 17.64 14 19 C10.061434 17.48109114 8.30648739 15.13374291 5.875 11.75 C5.19179688 10.81671875 4.50859375 9.8834375 3.8046875 8.921875 C1.99590468 5.99336948 0.94636435 3.29764074 0 0 Z " fill="#D38032" transform="translate(49,104)"/>
<path d="M0 0 C1.05767578 0.42925781 1.05767578 0.42925781 2.13671875 0.8671875 C5.01205232 2.00476831 7.90452186 3.07392356 10.8125 4.125 C11.78832031 4.47820312 12.76414062 4.83140625 13.76953125 5.1953125 C14.87361328 5.59363281 14.87361328 5.59363281 16 6 C16 6.33 16 6.66 16 7 C10.08874214 7.31111883 6.18813591 6.96464909 1 4 C0.0625 1.8125 0.0625 1.8125 0 0 Z " fill="#FEEECE" transform="translate(64,125)"/>
<path d="M0 0 C-0.33 1.65 -0.66 3.3 -1 5 C0.32 5.66 1.64 6.32 3 7 C3 7.66 3 8.32 3 9 C-1.59621922 7.5129879 -4.46972347 5.20187872 -8 2 C-8 1.67 -8 1.34 -8 1 C-2.25 -1.125 -2.25 -1.125 0 0 Z " fill="#FCEAD1" transform="translate(48,138)"/>
<path d="M0 0 C2.25723277 2.84122613 3.92922127 5.67007886 5.5 8.9375 C7.19135238 12.39685215 8.93703915 15.7426934 11 19 C10.01 19 9.02 19 8 19 C7.02692827 17.28873593 6.05447666 15.57711473 5.0859375 13.86328125 C4.21816131 12.37432714 3.27668128 10.92841672 2.3125 9.5 C0.66611195 6.36402276 0.34321684 3.50081175 0 0 Z " fill="#D78231" transform="translate(23,114)"/>
<path d="M0 0 C0.66 0 1.32 0 2 0 C4 3 4 3 4.9375 5.875 C5.87771973 9.03485786 5.87771973 9.03485786 7.6875 11.6875 C8.120625 12.450625 8.55375 13.21375 9 14 C8.67 14.99 8.34 15.98 8 17 C4.25627734 11.56938255 1.80610595 6.34339651 0 0 Z " fill="#FEEDCC" transform="translate(23,112)"/>
<path d="M0 0 C0.66 0.33 1.32 0.66 2 1 C0.89718873 2.27200971 -0.20730769 3.54255853 -1.3125 4.8125 C-1.92738281 5.52019531 -2.54226562 6.22789063 -3.17578125 6.95703125 C-4.73334335 8.70136739 -6.32658875 10.36778041 -8 12 C-8.99 11.67 -9.98 11.34 -11 11 C-7.6189962 6.86378916 -4.33409466 3.18683431 0 0 Z " fill="#FCE8C9" transform="translate(45,36)"/>
<path d="M0 0 C7.5273523 2.3107221 7.5273523 2.3107221 9.5 5.1875 C9.665 5.785625 9.83 6.38375 10 7 C10.66 7 11.32 7 12 7 C11.67 7.66 11.34 8.32 11 9 C10.01 8.34 9.02 7.68 8 7 C8 6.34 8 5.68 8 5 C6.35 5 4.7 5 3 5 C2.67 5.66 2.34 6.32 2 7 C2 5.68 2 4.36 2 3 C1.34 3 0.68 3 0 3 C0 2.01 0 1.02 0 0 Z " fill="#FDF3DE" transform="translate(112,28)"/>
<path d="M0 0 C-4.95 2.31 -9.9 4.62 -15 7 C-15 6.34 -15 5.68 -15 5 C-14.34 5 -13.68 5 -13 5 C-13.33 4.01 -13.66 3.02 -14 2 C-12.42085985 1.46658816 -10.83645613 0.94874237 -9.25 0.4375 C-8.36828125 0.14746094 -7.4865625 -0.14257812 -6.578125 -0.44140625 C-4 -1 -4 -1 0 0 Z " fill="#D47320" transform="translate(63,27)"/>
<path d="M0 0 C0.66 0 1.32 0 2 0 C2 1.32 2 2.64 2 4 C2.99 3.67 3.98 3.34 5 3 C4.50168276 6.68754757 3.89932357 8.60490662 1 11 C-0.98362069 8.08291076 -0.9876191 6.87619096 -0.625 3.25 C-0.41875 2.1775 -0.2125 1.105 0 0 Z " fill="#E2700B" transform="translate(18,62)"/>
<path d="M0 0 C0.99 0 1.98 0 3 0 C3.86627399 1.59766103 4.71766465 3.20339944 5.5625 4.8125 C6.27599609 6.15248047 6.27599609 6.15248047 7.00390625 7.51953125 C8 10 8 10 7 13 C5.82786955 11.21190303 4.66244474 9.41940875 3.5 7.625 C2.8503125 6.62726563 2.200625 5.62953125 1.53125 4.6015625 C0 2 0 2 0 0 Z " fill="#D27E28" transform="translate(118,124)"/>
<path d="M0 0 C3.96 0.33 7.92 0.66 12 1 C12 1.66 12 2.32 12 3 C12.66 3.33 13.32 3.66 14 4 C9.03083364 3.48594831 4.70973649 2.76615118 0 1 C0 0.67 0 0.34 0 0 Z " fill="#FBE6C4" transform="translate(60,152)"/>
<path d="M0 0 C2.97 1.65 5.94 3.3 9 5 C8.01 5.66 7.02 6.32 6 7 C5.01 6.67 4.02 6.34 3 6 C3 5.34 3 4.68 3 4 C2.01 3.67 1.02 3.34 0 3 C0 2.01 0 1.02 0 0 Z " fill="#DA7A20" transform="translate(42,142)"/>
<path d="M0 0 C1.32 0 2.64 0 4 0 C4.36923077 7.50769231 4.36923077 7.50769231 2.5 10 C2.005 10.33 1.51 10.66 1 11 C0.34 10.67 -0.32 10.34 -1 10 C0.32 7.36 1.64 4.72 3 2 C2.01 1.67 1.02 1.34 0 1 C0 0.67 0 0.34 0 0 Z " fill="#D77F2B" transform="translate(125,34)"/>
<path d="M0 0 C0.33 0 0.66 0 1 0 C1.33 2.64 1.66 5.28 2 8 C1.34 8 0.68 8 0 8 C-1.63676257 9.9600281 -1.63676257 9.9600281 -3 12 C-2.40075776 7.80530429 -1.42500059 3.99000166 0 0 Z " fill="#DC7E27" transform="translate(50,72)"/>
<path d="M0 0 C-0.33 0.99 -0.66 1.98 -1 3 C-1.33 4.32 -1.66 5.64 -2 7 C-3.65 4.69 -5.3 2.38 -7 0 C-2.25 -1.125 -2.25 -1.125 0 0 Z " fill="#FCEDD8" transform="translate(39,130)"/>
<path d="M0 0 C2.875 -0.125 2.875 -0.125 6 0 C8 2 8 2 8 5 C4.62496331 3.8141763 2.35277269 2.72426311 0 0 Z " fill="#D77E2E" transform="translate(63,123)"/>
<path d="M0 0 C3.63 0 7.26 0 11 0 C11.33 0.99 11.66 1.98 12 3 C7.18550592 2.51855059 4.39828259 2.1991413 0 0 Z " fill="#FDEBCE" transform="translate(90,47)"/>
<path d="M0 0 C-0.33 0.99 -0.66 1.98 -1 3 C-2.84765625 3.73046875 -2.84765625 3.73046875 -5.0625 4.1875 C-5.79597656 4.34605469 -6.52945313 4.50460938 -7.28515625 4.66796875 C-8.13400391 4.83232422 -8.13400391 4.83232422 -9 5 C-6.3784932 1.13015663 -4.82784953 0 0 0 Z " fill="#DB802E" transform="translate(71,53)"/>
<path d="M0 0 C0 0.33 0 0.66 0 1 C-1.76949612 1.50471197 -3.54065223 2.00360685 -5.3125 2.5 C-6.79169922 2.91765625 -6.79169922 2.91765625 -8.30078125 3.34375 C-11 4 -11 4 -14 4 C-12 1 -12 1 -9.8125 0.3125 C-6.52303184 -0.05299646 -3.30703016 -0.06484373 0 0 Z " fill="#FBDEB8" transform="translate(83,48)"/>
<path d="M0 0 C1.32 0.99 2.64 1.98 4 3 C1.69 4.65 -0.62 6.3 -3 8 C-2.45276317 4.62537285 -1.9451 2.91765 0 0 Z " fill="#E0771E" transform="translate(44,32)"/>
<path d="M0 0 C0 0.99 0 1.98 0 3 C-3.6441774 5.4294516 -5.71241272 5.16179575 -10 5 C-6.7321794 2.82145293 -3.61941735 1.50239966 0 0 Z " fill="#E0802C" transform="translate(119,149)"/>
<path d="M0 0 C0.66 0.33 1.32 0.66 2 1 C2 2.65 2 4.3 2 6 C0.68 5.67 -0.64 5.34 -2 5 C-2 3.68 -2 2.36 -2 1 C-1.34 0.67 -0.68 0.34 0 0 Z " fill="#FAF7EA" transform="translate(40,133)"/>
<path d="M0 0 C4.875 4.75 4.875 4.75 6 7 C4.35 6.67 2.7 6.34 1 6 C0.67 4.02 0.34 2.04 0 0 Z " fill="#D87E29" transform="translate(34,133)"/>
<path d="M0 0 C0.625 1.875 0.625 1.875 1 4 C0.34 4.66 -0.32 5.32 -1 6 C-3.125 5.625 -3.125 5.625 -5 5 C-3.35 3.35 -1.7 1.7 0 0 Z " fill="#DA741E" transform="translate(61,58)"/>
</svg>
